# xmcd
#
# Track frame offsets: 
#        150
#        12337
#        26550
#        43724
#        58649
#        76125
#
# Disc length: 1111 seconds
#
# Revision: 0
# Processed by: cddbd v1.5.2PL0 Copyright (c) Steve Scherf et al.
# Submitted via: ExactAudioCopy v0.99pb4
#
DISCID=3f045506
DTITLE=Fat Subbie's Blues Connection - ... fineally Blues!
DYEAR=1999
DGENRE=Blues
TTITLE0=Texas Woman Blues
TTITLE1=Jesus On The Mainline
TTITLE2=Stand By Me
TTITLE3=Wine Mop
TTITLE4=Baby, What You Want Me tTo Do
TTITLE5=Oh, Baby!
EXTD=
EXTT0=
EXTT1=
EXTT2=
EXTT3=
EXTT4=
EXTT5=
PLAYORDER=
